<svg xmlns="http://www.w3.org/2000/svg"  viewBox="0 0 24 24" width="24px" height="24px"><circle cx="12" cy="12" r="9" opacity=".35"/><path d="M12,2C6.48,2,2,6.48,2,12s4.48,10,10,10s10-4.48,10-10S17.52,2,12,2z M12,20c-4.423,0-8-3.577-8-8s3.577-8,8-8s8,3.577,8,8	S16.423,20,12,20z"/><path d="M11,16c-0.256,0-0.512-0.098-0.707-0.293l-3-3c-0.391-0.391-0.391-1.023,0-1.414s1.023-0.391,1.414,0L11,13.586l4.293-4.293	c0.391-0.391,1.023-0.391,1.414,0s0.391,1.023,0,1.414l-5,5C11.512,15.902,11.256,16,11,16z"/></svg>